<svg class="icon" xmlns="http://www.w3.org/2000/svg" xmlns:xlink="http://www.w3.org/1999/xlink"
    viewBox="23 6 97 132">
    <title>Firebase Logo</title>
    <path fill="#ffa000"
        d="M23.833 111.719 39.966 8.49a2.98 2.98 0 0 1 5.57-.946L62.22 38.662 68.87 26a2.98 2.98 0 0 1 5.273 0l45.023 85.719H23.833z" />
    <path fill="#f57c00" d="m79.566 71.507-17.354-32.86-38.379 73.072 55.733-40.212z" />
    <path fill="#ffca28"
        d="m119.167 111.719-12.356-76.46a2.981 2.981 0 0 0-5.042-1.61l-77.936 78.069L66.957 135.9a8.937 8.937 0 0 0 8.714 0l43.496-24.183z" />
    <path fill="#fff" fill-opacity=".2"
        d="M106.81 35.258c-.186-1.098-.97-2-2.031-2.34s-2.223-.057-3.01.73L86.3 49.157 74.137 26a2.98 2.98 0 0 0-5.274 0l-6.65 12.662L45.53 7.545a2.98 2.98 0 0 0-5.571.953l-16.125 103.22h-.052l.052.06.425.209 77.488-77.578a2.98 2.98 0 0 1 5.05 1.609l12.251 75.775.12-.074-12.356-76.46zm-82.835 76.32 15.99-102.35a2.98 2.98 0 0 1 5.572-.953L62.22 39.392l6.65-12.662a2.98 2.98 0 0 1 5.273 0L86.06 49.395l-62.086 62.182z" />
    <path fill="#a52714" opacity=".2"
        d="M75.67 135.172a8.937 8.937 0 0 1-8.713 0l-43.02-24.116-.104.663 43.124 24.176a8.937 8.937 0 0 0 8.714 0l43.495-24.176-.111-.685-43.384 24.138z" />
    <use fill="url(#a)" xlink:href="#b" />
</svg>