<svg class="icon" xmlns="http://www.w3.org/2000/svg" viewBox="0 0 400 400" xml:space="preserve">
    <title>GraphQL Logo</title>
    <path fill="#E535AB" d="m57.468 302.665-14.376-8.3 160.15-277.388 14.376 8.3z" />
    <path fill="#E535AB" d="M39.8 272.2h320.3v16.6H39.8z" />
    <path fill="#E535AB"
      d="m206.35 374.026-160.215-92.5 8.3-14.376 160.215 92.5zm139.174-241.079-160.215-92.5 8.3-14.376 160.215 92.5z" />
    <path fill="#E535AB" d="m54.48 132.884-8.3-14.376 160.215-92.5 8.3 14.376z" />
    <path fill="#E535AB"
      d="M342.568 302.666 182.418 25.278l14.376-8.3 160.15 277.388zM52.5 107.5h16.6v185H52.5z" />
    <path fill="#E535AB" d="M330.9 107.5h16.6v185h-16.6z" />
    <path fill="#E535AB" d="m203.52 367-7.25-12.558 139.344-80.45 7.25 12.558z" />
    <path fill="#E535AB"
      d="M369.5 297.9c-9.6 16.7-31 22.4-47.7 12.8-16.7-9.6-22.4-31-12.8-47.7 9.6-16.7 31-22.4 47.7-12.8 16.8 9.7 22.5 31 12.8 47.7M90.9 137c-9.6 16.7-31 22.4-47.7 12.8-16.7-9.6-22.4-31-12.8-47.7 9.6-16.7 31-22.4 47.7-12.8 16.7 9.7 22.4 31 12.8 47.7M30.5 297.9c-9.6-16.7-3.9-38 12.8-47.7 16.7-9.6 38-3.9 47.7 12.8 9.6 16.7 3.9 38-12.8 47.7-16.8 9.6-38.1 3.9-47.7-12.8M309.1 137c-9.6-16.7-3.9-38 12.8-47.7 16.7-9.6 38-3.9 47.7 12.8 9.6 16.7 3.9 38-12.8 47.7-16.7 9.6-38.1 3.9-47.7-12.8M200 395.8c-19.3 0-34.9-15.6-34.9-34.9 0-19.3 15.6-34.9 34.9-34.9 19.3 0 34.9 15.6 34.9 34.9 0 19.2-15.6 34.9-34.9 34.9M200 74c-19.3 0-34.9-15.6-34.9-34.9 0-19.3 15.6-34.9 34.9-34.9 19.3 0 34.9 15.6 34.9 34.9 0 19.3-15.6 34.9-34.9 34.9" />
</svg>