<svg class="icon" xmlns="http://www.w3.org/2000/svg" viewBox="0 0 1903.7 1903.7">
    <linearGradient id="a" x1="2891" x2="2784.4" y1="1504.5" y2="1449.5"
        gradientTransform="matrix(11.64 0 0 -22.55 -32777 34043)" gradientUnits="userSpaceOnUse">
        <stop offset="0" stop-color="#00A0FF" />
        <stop offset=".007" stop-color="#00A1FF" />
        <stop offset=".26" stop-color="#00BEFF" />
        <stop offset=".512" stop-color="#00D2FF" />
        <stop offset=".76" stop-color="#00DFFF" />
        <stop offset="1" stop-color="#00E3FF" />
    </linearGradient>
    <path fill="url(#a)" fill-rule="evenodd"
        d="M33.7 29.2C12.3 52.2 0 87.6 0 133.6v1636.2c0 46 12.3 81.4 34.5 103.6l5.8 4.9 916.8-916.8v-20.6L39.5 24.3l-5.8 4.9z"
        clip-rule="evenodd" />
    <linearGradient id="b" x1="2935.2" x2="2739.4" y1="1422.8" y2="1422.8"
        gradientTransform="matrix(9.145 0 0 -7.7 -25077 11907)" gradientUnits="userSpaceOnUse">
        <stop offset="0" stop-color="#FFE000" />
        <stop offset=".409" stop-color="#FFBD00" />
        <stop offset=".775" stop-color="orange" />
        <stop offset="1" stop-color="#FF9C00" />
    </linearGradient>
    <path fill="url(#b)" fill-rule="evenodd"
        d="M1262.1 1268.3 956.3 962.4V941l305.9-305.9 6.6 4.1 361.8 205.6c103.6 58.4 103.6 154.6 0 213.8l-361.8 205.6c-.1 0-6.7 4.1-6.7 4.1z"
        clip-rule="evenodd" />
    <linearGradient id="c" x1="2948.8" x2="2836.6" y1="1431.3" y2="1285.9"
        gradientTransform="matrix(15.02 0 0 -11.578 -43192 17693)" gradientUnits="userSpaceOnUse">
        <stop offset="0" stop-color="#FF3A44" />
        <stop offset="1" stop-color="#C31162" />
    </linearGradient>
    <path fill="url(#c)" fill-rule="evenodd"
        d="M1268.7 1264.2 956.3 951.7 33.7 1874.3c33.7 36.2 90.4 40.3 153.8 4.9l1081.2-615"
        clip-rule="evenodd" />
    <linearGradient id="d" x1="2862.4" x2="2912.5" y1="1571.7" y2="1506.8"
        gradientTransform="matrix(15.02 0 0 -11.572 -43192 17672)" gradientUnits="userSpaceOnUse">
        <stop offset="0" stop-color="#32A071" />
        <stop offset=".069" stop-color="#2DA771" />
        <stop offset=".476" stop-color="#15CF74" />
        <stop offset=".801" stop-color="#06E775" />
        <stop offset="1" stop-color="#00F076" />
    </linearGradient>
    <path fill="url(#d)" fill-rule="evenodd"
        d="M1268.7 639.3 187.5 25.1C124.2-11.1 67.4-6.2 33.7 30l922.5 921.7 312.5-312.4z"
        clip-rule="evenodd" />
    <path fill-rule="evenodd"
        d="M1262.1 1257.6 188.3 1867.7c-60 34.5-113.5 32.1-148 .8l-5.8 5.8 5.8 4.9c34.5 31.2 88 33.7 148-.8l1081.2-614.2-7.4-6.6z"
        clip-rule="evenodd" opacity=".2" />
    <path fill-rule="evenodd"
        d="m1630.5 1047.9-369.2 209.7 6.6 6.6 361.8-205.6c51.8-29.6 77.3-68.2 77.3-106.9-3.3 35.4-29.6 69.1-76.5 96.2z"
        clip-rule="evenodd" opacity=".12" />
    <path fill="#fff" fill-rule="evenodd"
        d="m187.5 35.8 1443 819.8c46.9 26.3 73.2 60.8 77.3 96.2 0-38.6-25.5-77.3-77.3-106.9L187.5 25.1C83.9-34.1 0 15.2 0 133.6v10.7C0 25.9 83.9-22.6 187.5 35.8z"
        clip-rule="evenodd" opacity=".25" />
</svg>